# xmcd
#
# Track frame offsets: 
#        150
#        20885
#        43075
#        60825
#        89200
#        107905
#        144350
#        178350
#        216575
#
# Disc length: 3460 seconds
#
# Revision: 4
# Processed by: cddbd v1.5.2PL0 Copyright (c) Steve Scherf et al.
# Submitted via: ExactAudioCopy v0.99pb1
#
DISCID=8d0d8209
DTITLE=Robben Ford And The Blue Line - In San Francisco
DYEAR=1995
DGENRE=Blues
TTITLE0=The Brother
TTITLE1=You Cut Me To The Bone
TTITLE2=Start It Up
TTITLE3=Step On It
TTITLE4=Prison Of Love
TTITLE5=Worried Life Blues
TTITLE6=Tell I'm Your Man
TTITLE7=Talk To Your Daughter
TTITLE8=Help The Poor
EXTD=YEAR: 1993
EXTT0=
EXTT1=
EXTT2=
EXTT3=
EXTT4=
EXTT5=
EXTT6=
EXTT7=
EXTT8=
PLAYORDER=
